<svg xmlns="http://www.w3.org/2000/svg" viewBox="0 0 86.8 91.87"><defs><style>.cls-1{fill:#66ffb2;}</style></defs><title>bittenApple1Asset 1</title><g id="Layer_2" data-name="Layer 2"><g id="Layer_1-2" data-name="Layer 1"><path class="cls-1" d="M46,17.94a2,2,0,0,1-2-2.37C45,10.18,49.61,0,59.77,0a17.63,17.63,0,0,1,4.4.58,2,2,0,0,1,1.49,2.2c-1.13,8.51-14.29,14.55-19.41,15.14ZM59.76,4c-6.41,0-9.52,5.52-10.89,9.18,4.52-1.58,10.36-5.24,12.24-9.1A12.52,12.52,0,0,0,59.76,4Z"/><path class="cls-1" d="M62.6,91.87h0c-2.7,0-5-1.33-7.46-2.75-2.71-1.57-5.5-3.18-9.14-3.18s-6.44,1.61-9.15,3.17c-2.45,1.41-4.76,2.75-7.46,2.75a8.58,8.58,0,0,1-5-1.67C12.61,82,0,66.62,0,47.94,0,27.52,15.48,13.29,29.37,13.29c6.38,0,12.19,2.71,16.89,7.87,11.66-9,23.72-10.26,32.91-3.52a2,2,0,0,1,.6,2.51,10.84,10.84,0,0,0-1.22,4.92,9.23,9.23,0,0,0,.11,1.19,2.38,2.38,0,0,1-1,2.28,11,11,0,0,0,4.22,20.58,2,2,0,0,1,1.58,1.1,2,2,0,0,1-.08,1.92,10.8,10.8,0,0,0-1.6,5.65,11,11,0,0,0,4.23,8.64,2,2,0,0,1,.52,2.49,60.65,60.65,0,0,1-19,21.28,8.47,8.47,0,0,1-5,1.67ZM46,81.94c4.7,0,8.27,2.06,11.14,3.72,2.06,1.19,3.83,2.22,5.45,2.22h0a4.59,4.59,0,0,0,2.69-1,57,57,0,0,0,17-18.48,14.82,14.82,0,0,1-3.49-15.87,15,15,0,0,1-4.21-26.79c0-.24,0-.47,0-.7a14.55,14.55,0,0,1,.93-5.1c-7.87-4.83-18.14-2.88-28.2,5.5a2,2,0,0,1-1.48.45,2,2,0,0,1-1.36-.74C40.3,20,35.09,17.3,29.36,17.3,17.36,17.3,4,29.88,4,47.94c0,17.14,11.73,31.36,22.68,39,2.66,1.85,5,.59,8.17-1.25C37.73,84,41.3,81.94,46,81.94Z"/></g></g></svg>