<svg xmlns="http://www.w3.org/2000/svg" viewBox="0 0 466.32 512.16"><defs><style>.cls-1{fill:#66ffb2;}</style></defs><title>24hrs1Asset 2</title><g id="Layer_2" data-name="Layer 2"><g id="Layer_1-2" data-name="Layer 1"><path class="cls-1" d="M247.49,0c.39.34.73.88,1.17,1a12,12,0,0,1,6.11,4c1.26,1.44,2.51,2.91,3.71,4.41Q286,43.63,313.55,77.84c1.2,1.5,2.39,3,3.49,4.58,4.24,6.08,2,15.7-4.54,19.18-11,5.87-21.85,12-32.81,18q-24.47,13.28-49,26.42c-1.83,1-3.68,1.95-5.58,2.78A13.81,13.81,0,0,1,207,141.64c-1.41-3.17-1.12-6.48-.54-9.68,1.29-7.16,2.83-14.26,4.27-21.39.74-3.68,1.53-7.35,2.23-11a17.51,17.51,0,0,0,0-2.84c-4.19.52-8.11.74-11.91,1.54-20.12,4.24-39.46,10.51-57.5,20.7a186,186,0,0,0-83.1,98,178.38,178.38,0,0,0-9.31,39.58C49.94,266.66,50,276.79,50.06,287a145.09,145.09,0,0,0,3.18,26.85c7,35.37,22.78,66.15,47.81,92.13a181.45,181.45,0,0,0,66.2,44c1.27.49,2.53,1,3.78,1.52a71.15,71.15,0,0,0,13.7,4.28c4.15.84,8.16,2.33,12.32,3.09,5.73,1,11.54,1.71,17.32,2.45,13.17,1.67,26.37,1.05,39.52-.08a155.89,155.89,0,0,0,18.88-3.26,164.23,164.23,0,0,0,30.16-9.41,189.2,189.2,0,0,0,57.85-37.94A182.09,182.09,0,0,0,398,359.14a166.2,166.2,0,0,0,11.05-28.59c1.29-4.61,2.59-9.23,3.68-13.89.7-3,1.06-6.14,1.5-9.22.62-4.35,1.54-8.69,1.7-13.06.33-9,.49-18.08.26-27.1-.26-10.08-2.1-20-4.29-29.83a174.72,174.72,0,0,0-21.51-53.08,195.1,195.1,0,0,0-12.81-18.54c-.83-1.08-1.67-2.15-2.45-3.26-4.73-6.7-5.23-14.22-3.44-21.82,1.25-5.26,4.68-9.45,9.07-12.63,13.07-9.47,27.77-3.71,34.11,4.34a247.78,247.78,0,0,1,32.51,53.87c3.77,8.58,6.34,17.59,9.38,26.43,3,8.59,4.5,17.48,6.19,26.34a183.64,183.64,0,0,1,3.34,36.24c-.06,5.84.05,11.68-.11,17.52-.08,3-.71,6-.89,9.06-.72,12.19-3.42,24-6.42,35.8a227.78,227.78,0,0,1-33,72.51,230.6,230.6,0,0,1-84,75,208.81,208.81,0,0,1-38.18,16c-10,3-19.91,6-30.21,7.57-7.25,1.11-14.47,2.62-21.88,2.51a24.1,24.1,0,0,0-4.62.82H220.13c-1.6-.29-3.19-.71-4.81-.85-2.55-.2-5.13,0-7.66-.35-4.68-.6-9.31-1.49-14-2.17a196.25,196.25,0,0,1-28.21-6.62,234.34,234.34,0,0,1-25.61-9.52,234.06,234.06,0,0,1-120.33-120A244.22,244.22,0,0,1,2.36,314.11a123.69,123.69,0,0,1-2.09-20.5c0-3.68,0-7.37-.13-11a206,206,0,0,1,2.74-40.38,197.64,197.64,0,0,1,10.2-40.37c3.49-9.17,7.27-18.29,11.57-27.11a224,224,0,0,1,55.05-71.3c16-13.88,33.23-25.78,52.52-34.56,8.8-4,17.59-8,26.78-11.12a273,273,0,0,1,31.29-8.14,180.17,180.17,0,0,1,31-3.47c2.4-.09,2.69-.35,3.1-2.42q1.28-6.35,2.58-12.68c1.35-6.57,2.73-13.14,4.07-19.72a12.72,12.72,0,0,1,8.45-9.92A8,8,0,0,0,241.25,0Z"/><path class="cls-1" d="M339.18,290.16c2.59,0,4.82,0,7.05,0,6.63.09,11.13,2.92,11.76,11.12a116.74,116.74,0,0,1-.09,13.87,9.47,9.47,0,0,1-3.19,6.53,8.12,8.12,0,0,1-5.33,2.46c-2.4.08-4.79.14-7.19.19-.87,0-1.73,0-2.83,0-.07,1.32-.17,2.41-.17,3.51,0,7.6-.16,15.2,0,22.79.17,6.83-5,11.37-11.29,11.24-7.12-.16-14.24-.27-21.35-.47-3.64-.09-7.51-3.54-8.19-7.29a26.35,26.35,0,0,1-.33-4.53c0-7.6,0-15.2,0-22.79,0-2.15-.33-2.48-2.51-2.54-1.6-.05-3.2,0-4.8,0H240.83c-.8,0-1.6,0-2.4,0-5.38-.27-8.8-3.19-9.63-8.55a45.09,45.09,0,0,1-.31-7.17c0-2.95.3-5.91.32-8.87a12.45,12.45,0,0,1,2-6.76q20.25-32.6,40.42-65.24,7.22-11.62,14.53-23.17a19.21,19.21,0,0,1,2.69-3.34,6.75,6.75,0,0,1,4.5-2c11.26-.76,22.53-.65,33.8-.35,1.2,0,2.39.25,3.58.35a9.27,9.27,0,0,1,8.76,8.84c.1,1,.07,2.08.07,3.12v79ZM298,289.94c.59-4.79.18-41-.45-43.78-1.91,1.79-24.44,41.17-25,43.78Z"/><path class="cls-1" d="M173.6,325.1h42c5.65.07,9.47,3.14,10.24,8.76a72.28,72.28,0,0,1,0,19.38,9.38,9.38,0,0,1-8,8.18,25.42,25.42,0,0,1-4.77.43c-9.59,0-19.19-.07-28.79-.08q-23.74,0-47.5,0c-5.2,0-10.39.1-15.59.08a28.33,28.33,0,0,1-4.77-.46,8.88,8.88,0,0,1-7.27-6.19,25.76,25.76,0,0,1-1.16-9.47c.07-1.92.26-3.83.27-5.75a11,11,0,0,1,3.5-8.14c2.13-2.05,4.37-4,6.54-6C131,314,143.8,302.3,156.4,290.37a106.34,106.34,0,0,0,14.5-16.91,93.8,93.8,0,0,0,5.57-9.23c3.24-6.05,3.63-12.54,2.27-19.13-.93-4.5-3.82-7.67-7.77-9.87a23.68,23.68,0,0,0-10.29-2.91,39.25,39.25,0,0,0-21.36,4.22c-2,1.09-4.12,2.14-6.23,3.08a20.4,20.4,0,0,1-4.51,1.55,8.72,8.72,0,0,1-9.1-3.5,14.91,14.91,0,0,1-1.94-3.29c-1.61-3.91-3.11-7.87-4.63-11.82a13.3,13.3,0,0,1-.53-1.84c-1.2-5,.1-8.61,4.48-11.33a84.51,84.51,0,0,1,8.49-4.44,91.21,91.21,0,0,1,45.93-8.5c9.65.64,19,2.84,27.45,7.76,10.91,6.35,18.51,15.47,21.91,27.67,1.7,6.13,3,12.4,2.41,18.92a70.35,70.35,0,0,1-12.31,34.59,136.32,136.32,0,0,1-19.5,22.7c-5.2,4.86-10.56,9.53-15.84,14.3-.74.67-1.41,1.41-2.11,2.12Z"/></g></g></svg>