<svg xmlns="http://www.w3.org/2000/svg" viewBox="0 0 298.91 575.93"><defs><style>.cls-1{fill:#fff;}</style></defs><title>facebookFAsset 2</title><g id="Layer_2" data-name="Layer 2"><g id="Layer_1-2" data-name="Layer 1"><g id="j0cHGq"><path class="cls-1" d="M88,313.09H0V211.22c.69,0,1.39-.11,2.08-.11H86.32c1.69,0,1.7,0,1.7-1.7q0-23.22,0-46.44,0-16.42,0-32.87c0-.76-.24-1.61.67-2.15.19-.12.15-.67.16-1,.06-3.83.09-7.67.18-11.51,0-.47.39-.93.56-1.41a3.16,3.16,0,0,0,.23-1c.07-1.84.07-3.68.17-5.52a5,5,0,0,1,.49-1.25,3.16,3.16,0,0,0,.33-.95c.08-1.08-.21-2.31.22-3.21.85-1.75.78-3.6,1.1-5.41a11,11,0,0,1,.92-3.58c.82-1.47.47-3.18,1.12-4.47.55-1.11.37-2.35.92-3.18.64-1,.38-2.38.94-2.85,1.35-1.13.19-3,1.61-4,.08-.05.08-.22.11-.33A19.37,19.37,0,0,1,99.14,74c.59-1,.43-2.38,1.63-3a.14.14,0,0,0,.08-.09c.36-1.08.65-2.2,1.1-3.24a29.89,29.89,0,0,1,1.51-2.7c.08-.13.24-.21.29-.35.41-1,.72-2.08,1.22-3a22.77,22.77,0,0,1,1.63-2.42c.12-.19.3-.38.31-.58.06-1.2.9-1.86,1.68-2.59a.57.57,0,0,0,.2-.39c0-1.27,1-1.89,1.66-2.76a13.37,13.37,0,0,1,1.49-2.3c1.2-1,1.18-2.83,2.71-3.64.63-.35.92-1.34,1.38-2a9.65,9.65,0,0,1,1.07-1.52c1.77-1.84,3.62-3.61,5.38-5.46.6-.64,1-1.49,1.56-2.13s1.41-1.18,2.1-1.79c.87-.77,1.73-1.58,2.59-2.37.59-.54,1.17-1.07,1.77-1.6.41-.35,1-.6,1.23-1,.89-1.54,2.54-2,3.85-3,.23-.16.25-.6.47-.76,1.09-.77,2.22-1.48,3.32-2.23.42-.28.81-.63,1.22-.93.81-.6,1.63-1.2,2.45-1.78a.85.85,0,0,1,.45-.14c1.19-.06,1.8-1,2.66-1.65A19,19,0,0,1,148,17.44c1-.49,1.92-.94,2.87-1.43s1.91-1,2.86-1.53c.26-.14.55-.24.81-.38.45-.24.88-.49,1.32-.75.06,0,.09-.14.16-.16,1-.41,2.06-.77,3.07-1.21s2-1,3-1.51a1.13,1.13,0,0,1,.2-.13c1.45-.44,2.91-.85,4.36-1.31a10.73,10.73,0,0,0,1.26-.65,1.52,1.52,0,0,1,.51-.22,6.18,6.18,0,0,0,2.8-.85c1.24-.79,2.94-.83,4.42-1.25,2-.55,3.9-1.21,5.88-1.71.95-.25,2-.19,3-.37a8.36,8.36,0,0,0,1.43-.6,3.14,3.14,0,0,1,.88-.25c.91-.07,1.84,0,2.75-.16A7.3,7.3,0,0,0,191,2.36a2.86,2.86,0,0,1,.91-.2c1.43-.06,2.87-.08,4.31-.14.64,0,1.37.2,1.76-.66.09-.18.65-.17,1-.19,2.28-.1,4.58,0,6.82-.31C217.12-.71,228.46.39,239.77.23c3.41-.05,6.84.72,10.31.72,4.84,0,9.67.14,14.51.23.85,0,1.76-.21,2.41.7.13.19.67.14,1,.14,4.2,0,8.4.07,12.59.17.51,0,1,.42,1.5.58a4.16,4.16,0,0,0,1.15.21c3.08.06,6.16.09,9.24.19a6,6,0,0,1,1.42.56,4.08,4.08,0,0,0,1.23.25c3.76.09,3.76.08,3.76,3.83V95c-.94.06-1.77.16-2.6.17-17.32,0-34.64-.07-52,.11-3.11,0-6.25.71-9.41.7a17.17,17.17,0,0,0-2.27.09c-1.42.19-2.88-.21-4.25.74-.59.42-1.63.19-2.46.28s-1.64-.07-2.39.72c-.39.41-1.45.15-2.18.31a6.86,6.86,0,0,0-1.47.65c-.1,0-.2.2-.28.18-1.47-.3-2.55.69-3.77,1.17a30,30,0,0,0-3.17,1.67,21.43,21.43,0,0,0-2.23,1.28c-1.62,1.15-3.53,1.89-4.74,3.67-.64.93-1.93,1.43-2.5,2.39-.74,1.22-2.1,1.92-2.48,3.46a10.56,10.56,0,0,1-1.65,2.59c-.12.19-.08.47-.19.67-.21.41-.47.8-.72,1.19,0,.06-.15.09-.17.15-.35,1.18-.72,2.36-1,3.55-.15.57.14,1.26-.69,1.61-.23.1-.22.79-.29,1.22-.18,1,.15,2.09-.77,3-.38.37-.22,1.3-.27,2a25,25,0,0,1-.18,2.87c-1.72,8.77-.66,17.64-.81,26.46-.19,12-.05,24.08,0,36.11,0,5,0,10.08,0,15.12,0,2,0,2,1.95,2h98.84c0,1.83.51,3.73-.12,5.1-.95,2.05-.46,4-.74,6-.1.76.14,1.59-.67,2.17-.18.13-.16.59-.17.9-.05,1.56-.06,3.12-.14,4.68,0,.82.28,1.77-.7,2.35-.15.09-.12.52-.14.8-.06,1.56-.09,3.12-.17,4.67,0,.89.2,1.85-.71,2.53-.16.11-.12.52-.13.8-.11,1.84.12,3.76-.37,5.49-.74,2.59-.22,5.36-1,7.79s-.49,4.69-.82,7a17.64,17.64,0,0,1-.69,2.29,3.7,3.7,0,0,0-.16.93c-.05,1.28-.05,2.56-.11,3.84,0,.69.17,1.44-.62,1.93-.18.11-.18.58-.19.89-.06,1.68-.08,3.36-.16,5,0,.7.26,1.53-.68,2-.14.07-.13.52-.15.79,0,.76,0,1.52-.09,2.27-.25,1.8.39,3.66-.78,5.41-.48.72-.16,2-.26,2.95-.38,3.89-.35,7.89-1.33,11.62-.68,2.57-.41,5.07-.82,7.57,0,.19,0,.49-.08.57-1.22.91-.54,2.28-.92,3.57H194V575.93H88Z"/></g></g></g></svg>