<svg xmlns="http://www.w3.org/2000/svg" viewBox="0 0 418.07 426.79"><defs><style>.cls-1{fill:#fff;}</style></defs><title>googleGAsset 1</title><g id="Layer_2" data-name="Layer 2"><g id="Layer_1-2" data-name="Layer 1"><g id="hKRnks"><path class="cls-1" d="M296.2,114.86a123.61,123.61,0,0,0-53-26.58c-41.18-9.2-78.63-1-111.41,25.78-28.24,23-44,53.23-46.74,89.45C82.46,238,92.48,269,114.64,295.72c19.78,23.85,45.2,38.91,75.57,44,43.54,7.27,82.45-2.73,113.33-35.91,12.11-13,20.45-28.55,25.8-46.25h-116V228.37c0-15.66.2-31.32-.08-47-.08-4.48.87-6,5.66-6,36.65.34,73.29.44,109.94.52,28.3.07,56.61,0,85.66,0,1,6.8,2.55,13.26,2.95,19.79,3.58,58.63-9.38,112.8-45.52,160-26.42,34.48-61.75,55.68-104.08,65-48.08,10.54-95.25,8-140.6-12.19C79.91,387.4,44.65,353.2,21.56,306.8,9.3,282.17,2.6,256,.59,228.4a207.75,207.75,0,0,1,12-87.23C28.79,96.64,56.64,61,96.37,34.89c30.5-20,64-31.84,100.31-34.31C252.56-3.24,303,11.85,347,47c3.24,2.59,6.36,5.33,9.3,7.8C336.28,74.78,316.45,94.6,296.2,114.86Z"/></g></g></g></svg>